<mxfile host="app.diagrams.net" modified="2022-10-14T04:04:20.682Z" agent="5.0 (Windows NT 10.0; Win64; x64) AppleWebKit/537.36 (KHTML, like Gecko) Chrome/106.0.0.0 Safari/537.36" etag="zhlT-NHEGEx-d9Bsn9ok" version="20.4.0" type="github">
  <diagram id="P7a58e-hZodsQtmb7xjX" name="페이지-1">
    <mxGraphModel dx="3327" dy="887" grid="1" gridSize="10" guides="1" tooltips="1" connect="1" arrows="1" fold="1" page="1" pageScale="1" pageWidth="827" pageHeight="1169" math="0" shadow="0">
      <root>
        <mxCell id="0" />
        <mxCell id="1" parent="0" />
        <mxCell id="O7blb1luG2vvZTJPsJBL-5" style="edgeStyle=orthogonalEdgeStyle;rounded=0;orthogonalLoop=1;jettySize=auto;html=1;exitX=1;exitY=0.5;exitDx=0;exitDy=0;entryX=0;entryY=0.5;entryDx=0;entryDy=0;fontSize=9;" edge="1" parent="1" source="O7blb1luG2vvZTJPsJBL-1" target="O7blb1luG2vvZTJPsJBL-3">
          <mxGeometry relative="1" as="geometry" />
        </mxCell>
        <mxCell id="O7blb1luG2vvZTJPsJBL-7" style="edgeStyle=orthogonalEdgeStyle;rounded=0;orthogonalLoop=1;jettySize=auto;html=1;exitX=1;exitY=0.5;exitDx=0;exitDy=0;entryX=0;entryY=0.5;entryDx=0;entryDy=0;fontSize=9;" edge="1" parent="1" source="O7blb1luG2vvZTJPsJBL-1" target="O7blb1luG2vvZTJPsJBL-6">
          <mxGeometry relative="1" as="geometry" />
        </mxCell>
        <mxCell id="O7blb1luG2vvZTJPsJBL-1" value="NeRF&lt;br&gt;ECCV 2020.08.&lt;br&gt;&lt;font style=&quot;font-size: 9px;&quot;&gt;https://arxiv.org/abs/2003.08934&lt;/font&gt;" style="rounded=0;whiteSpace=wrap;html=1;" vertex="1" parent="1">
          <mxGeometry x="-1270" y="330" width="170" height="70" as="geometry" />
        </mxCell>
        <mxCell id="O7blb1luG2vvZTJPsJBL-2" value="Code NeRF&lt;br&gt;ICCV 2021.03.&lt;br&gt;&lt;font style=&quot;font-size: 9px;&quot;&gt;https://arxiv.org/abs/2109.01750&lt;/font&gt;" style="rounded=0;whiteSpace=wrap;html=1;" vertex="1" parent="1">
          <mxGeometry x="-970" y="520" width="170" height="70" as="geometry" />
        </mxCell>
        <mxCell id="O7blb1luG2vvZTJPsJBL-3" value="NeRF in the Wild&lt;br&gt;CVPR 2021.06.&lt;br&gt;&lt;font style=&quot;font-size: 9px;&quot;&gt;https://nerf-w.github.io/&lt;/font&gt;" style="rounded=0;whiteSpace=wrap;html=1;" vertex="1" parent="1">
          <mxGeometry x="-970" y="280" width="170" height="70" as="geometry" />
        </mxCell>
        <mxCell id="O7blb1luG2vvZTJPsJBL-6" value="Editing Conditional R.F.&lt;br&gt;ICCV 2021.03.&lt;br&gt;&lt;font style=&quot;font-size: 9px;&quot;&gt;https://arxiv.org/abs/2105.06466&lt;/font&gt;" style="rounded=0;whiteSpace=wrap;html=1;" vertex="1" parent="1">
          <mxGeometry x="-970" y="400" width="170" height="70" as="geometry" />
        </mxCell>
      </root>
    </mxGraphModel>
  </diagram>
</mxfile>
